<svg xmlns="http://www.w3.org/2000/svg" viewBox="0 0 135.467 135.467">
  <!-- Fond carré arrondi crème -->
  <path fill="#f5f0e8" d="M 27.103266,0.2207377 H 107.88333 c 14.91738,0 26.92669,12.0093033 26.92669,26.9266893 v 81.118333 c 0,14.91738 -12.00931,26.92669 -26.92669,26.92669 H 27.103266 c -14.917386,0 -26.92668889,-12.00931 -26.92668889,-26.92669 V 27.147427 C 0.17657711,12.230041 12.18588,0.2207377 27.103266,0.2207377 Z"/>
  <!-- Verre de loupe -->
  <circle cx="66.264" cy="67.283" r="51.5" fill="#dce8e2"/>
  <!-- Texte FBI en Impact Label Reversed (paths) — B agrandi 15% pour effet loupe -->
<g fill="#1a1208">
  <path transform="translate(5.656, 85.991) scale(0.070595, -0.070595)" d="M150 500Q152 502 175.5 503.5Q199 505 229.5 505.5Q260 506 288.5 506.5Q317 507 328 507Q349 507 375.0 515.5Q401 524 423 532Q444 541 451.5 542.5Q459 544 469 536Q472 532 474.5 522.5Q477 513 477.0 502.5Q477 492 473.5 483.5Q470 475 464 469Q449 460 432.5 462.5Q416 465 412 469Q411 471 393.0 471.0Q375 471 354.0 471.0Q333 471 314.5 470.0Q296 469 292 469Q286 469 274.5 469.0Q263 469 248.5 470.0Q234 471 222.0 471.0Q210 471 205 471Q186 471 180 452Q180 446 180.0 429.0Q180 412 180.0 393.5Q180 375 180.0 359.5Q180 344 180 341Q177 336 176.5 326.0Q176 316 176 312Q176 310 178.0 306.0Q180 302 183.0 298.0Q186 294 189.0 290.5Q192 287 194 288Q198 293 205.5 295.5Q213 298 222 302Q225 303 235.0 303.0Q245 303 256.5 303.0Q268 303 277.0 302.5Q286 302 292 302Q299 302 319.5 306.0Q340 310 353 314Q367 317 379.0 310.0Q391 303 389 294Q387 286 380.5 277.0Q374 268 364 264Q356 263 340.0 265.5Q324 268 314 264Q309 261 295.0 261.0Q281 261 264.0 261.0Q247 261 232.5 262.5Q218 264 215 264Q210 267 204.0 267.5Q198 268 192 269Q186 271 177 271L188 180V185Q188 189 189.5 192.5Q191 196 191 201Q191 210 199 219Q203 222 209 226Q206 215 203 203Q199 192 197.0 180.0Q195 168 195 159Q194 142 192 142Q191 142 188 144Q191 139 191 132Q191 127 191.0 120.0Q191 113 192 109Q194 101 200.0 96.0Q206 91 218 83Q230 74 223.5 68.0Q217 62 211 59Q206 56 188.5 57.5Q171 59 165 60Q152 64 152 91Q152 98 152.0 127.5Q152 157 152.5 190.0Q153 223 153.0 251.5Q153 280 153 286Q153 288 153.0 304.5Q153 321 152.5 340.0Q152 359 152.0 378.0Q152 397 152 405Q152 423 155.0 443.5Q158 464 158 466Q158 471 152.0 483.5Q146 496 150 500ZM201 328Q198 329 194.5 347.5Q191 366 189.5 387.5Q188 409 191.5 425.0Q195 441 210 437Q215 435 214.0 427.0Q213 419 211.0 409.5Q209 400 205.0 391.0Q201 382 201 380Q203 375 204.0 366.5Q205 358 205.0 349.0Q205 340 204.0 333.5Q203 327 201 328ZM230 428Q234 424 260.0 423.0Q286 422 315 422Q351 419 397 422H329Q305 422 282.0 420.5Q259 419 256 419Q251 419 246.0 408.0Q241 397 237.5 383.5Q234 370 231.5 360.0Q229 350 228 351Q225 351 225.0 364.0Q225 377 226.5 391.0Q228 405 228.5 417.5Q229 430 230 428ZM306 215Q299 208 281 211Q270 211 258 215ZM229 128Q225 184 224 208Q222 222 218 229Q222 223 228 216Q230 210 233.0 199.5Q236 189 236 174Q236 161 236.0 141.0Q236 121 235.0 103.5Q234 86 232.0 73.0Q230 60 229 59Q225 56 222 56H218Q221 56 224 64Q228 71 228.5 84.5Q229 98 229 128Z"/>
  <path transform="translate(42.013, 88.797) scale(0.081185, -0.081185)" d="M167 423Q167 419 165 416Q163 412 162.0 409.5Q161 407 160 405Q156 401 162.0 385.0Q168 369 169 358Q174 345 176.0 337.0Q178 329 169 326Q165 322 162.5 329.0Q160 336 156 340Q153 344 147.5 354.0Q142 364 142 371Q142 388 148 401Q149 409 149.5 416.0Q150 423 154 428Q156 434 161.5 431.0Q167 428 167 423ZM183 411Q184 417 196.0 420.0Q208 423 221 424Q237 427 256 424Q239 423 227 422Q214 419 205.5 418.0Q197 417 195 417Q191 417 188.5 393.5Q186 370 186 359Q186 354 185.0 360.0Q184 366 183.5 377.0Q183 388 183.0 398.5Q183 409 183 411ZM381 284Q379 279 385 269Q386 264 390 258L393 263Q397 267 403 263Q408 258 411.5 243.5Q415 229 423 215Q431 199 435.0 179.0Q439 159 439 128Q439 113 430.5 96.5Q422 80 412.5 67.5Q403 55 394.0 45.5Q385 36 384 33Q381 30 377.5 31.5Q374 33 363 30Q354 29 335.0 29.0Q316 29 290 25Q267 21 228.5 23.0Q190 25 163 30Q137 36 132.0 55.0Q127 74 127 80Q127 89 126.0 95.5Q125 102 118 120Q114 128 113.0 168.0Q112 208 112.0 255.0Q112 302 113.0 340.5Q114 379 114 386Q114 400 114.0 421.0Q114 442 112 447Q110 453 108.0 456.5Q106 460 108 465Q112 470 130.0 476.5Q148 483 161 490Q175 495 202 499Q214 500 231 500Q255 500 275 499Q291 496 308.0 495.5Q325 495 331 494Q341 488 353.5 483.5Q366 479 374 477Q385 476 381.5 482.0Q378 488 379 495Q381 502 386.5 488.5Q392 475 396 466Q399 460 407.0 443.5Q415 427 419 407Q420 389 414.5 366.5Q409 344 404 340Q401 336 400.0 323.5Q399 311 397 309Q393 299 381 284ZM290 261Q280 261 265.0 259.5Q250 258 235 257Q217 256 201 256Q195 257 190.5 259.0Q186 261 183 263Q178 264 174 267L163 252Q153 238 149 234Q145 229 144 229H142L138 136Q142 155 145 173Q149 186 151.0 198.5Q153 211 154 215Q154 219 163 223L169 227L167 216Q163 203 163 197Q163 189 164.0 171.5Q165 154 168 144Q172 136 173.5 119.0Q175 102 169 101Q165 101 161.0 101.0Q157 101 153 109Q145 120 145 131Q144 137 145 143V113Q145 101 147.0 90.5Q149 80 154 78Q163 72 173.0 69.5Q183 67 191 71Q209 78 213 76Q214 74 231.0 71.0Q248 68 269.0 67.5Q290 67 311.5 69.0Q333 71 345 78Q359 84 370.0 98.5Q381 113 389.0 129.5Q397 146 399.0 163.0Q401 180 392 192Q373 216 342.5 238.5Q312 261 290 261ZM277 451Q270 451 258.0 450.0Q246 449 233.5 447.5Q221 446 212.0 444.0Q203 442 203 442Q201 435 197.0 443.0Q193 451 187 453Q183 454 166.0 451.5Q149 449 145 446Q144 445 143.0 425.0Q142 405 142.0 381.5Q142 358 142.0 336.0Q142 314 142 309Q142 303 143.0 293.5Q144 284 144 273V249Q150 249 157 252Q172 256 168 267Q165 276 163.0 287.0Q161 298 169 302Q174 302 189.5 302.5Q205 303 224.5 303.0Q244 303 261.5 303.0Q279 303 285 303Q298 303 309.0 297.5Q320 292 325 288Q328 286 332.5 276.5Q337 267 343 267Q345 267 348.0 271.5Q351 276 355 284Q359 291 363 302L339 291Q343 297 350 303Q354 310 358.5 319.5Q363 329 367 344Q371 370 371.0 393.5Q371 417 348 431Q325 446 308.0 449.5Q291 453 277 451ZM333 543Q344 543 361.0 532.5Q378 522 394.5 505.0Q411 488 426.0 467.0Q441 446 446 427Q452 405 449.0 383.5Q446 362 441.5 341.5Q437 321 431.5 306.0Q426 291 423 284Q422 276 430.5 269.5Q439 263 448.5 250.0Q458 237 465.5 211.5Q473 186 468 146Q462 106 445.0 77.0Q428 48 411 29Q392 7 367 -7Q374 -1 384 6Q401 19 420 44Q439 71 448.5 103.5Q458 136 462 171Q464 189 457.0 207.5Q450 226 440.5 241.5Q431 257 422.0 268.0Q413 279 413 280Q411 284 426 294Q431 302 435.0 341.5Q439 381 439 424Q438 446 422.5 467.0Q407 488 386 506Q363 525 333 543ZM250 352Q263 352 276.5 351.5Q290 351 295 347L213 352ZM190 124Q190 148 191 167Q193 185 193.0 199.5Q193 214 197 215V189Q197 178 197.5 168.5Q198 159 198 155Q198 151 197.5 146.5Q197 142 197 136V124L239 112Z"/>
  <path transform="translate(84.021, 85.991) scale(0.070595, -0.070595)" d="M374 525Q380 524 387 524Q392 523 398.0 523.0Q404 523 407 519Q411 515 413.0 506.0Q415 497 415 489Q415 478 412 464V476Q412 482 412.0 489.0Q412 496 411 505Q407 520 388.5 519.5Q370 519 368 515Q363 512 367.5 508.5Q372 505 380 502Q397 496 402 476Q406 466 397.5 456.5Q389 447 381 440Q372 430 355.5 433.5Q339 437 334 440Q321 445 308 440Q302 436 302.0 429.0Q302 422 302 407V151Q302 145 302.0 132.5Q302 120 303.0 107.5Q304 95 304.5 84.0Q305 73 309 73Q314 72 324.5 81.0Q335 90 342 90Q347 90 356.0 83.0Q365 76 370 77Q387 81 397 71Q404 64 400.5 49.0Q397 34 389 22Q381 8 363.5 7.5Q346 7 332 11Q317 13 298.0 14.5Q279 16 263 16Q245 16 217.0 13.5Q189 11 184 16Q180 18 184.0 26.0Q188 34 193.0 41.5Q198 49 204.0 56.5Q210 64 214 64Q223 65 229.5 61.5Q236 58 245 61Q256 65 259.5 75.5Q263 86 266 98Q266 103 266.0 142.0Q266 181 264.5 228.0Q263 275 262.0 316.0Q261 357 261 370Q261 423 244 445Q240 448 229.0 448.0Q218 448 205.5 448.5Q193 449 184.5 454.0Q176 459 179 472Q180 485 188.0 491.0Q196 497 205.0 498.5Q214 500 225.0 498.5Q236 497 242 497Q256 496 271.0 495.0Q286 494 312 497Q339 502 345.0 510.5Q351 519 357 523Q363 525 369.5 531.5Q376 538 385 535Q395 532 395.0 528.5Q395 525 387 523Q380 520 377 523ZM240 539Q248 543 271.5 542.5Q295 542 320 539Q350 538 385 535ZM340 265Q342 217 343.0 175.0Q344 133 346 128Q346 125 346.5 123.0Q347 121 347 120Q347 118 350 115L342 113L338 391ZM353 107Q357 120 369.5 116.5Q382 113 399 103Q416 95 415.5 74.5Q415 54 416 52Q418 47 416.5 55.5Q415 64 415 71Q415 77 407.0 86.0Q399 95 395 98Q393 98 386.5 99.0Q380 100 371.5 100.0Q363 100 358.0 101.5Q353 103 353 107Z"/>
</g>
  <!-- Cercle gold de la loupe -->
  <circle cx="66.264" cy="67.283" r="59.85" fill="none" stroke="#c8922a" stroke-width="8.12"/>
  <!-- Manche -->
  <line x1="111.394" y1="109.042" x2="131.248" y2="127.276" stroke="#c8922a" stroke-width="8.47" stroke-linecap="round"/>
  <!-- Reflet manche -->
  <line x1="111.378" y1="108.840" x2="131.629" y2="127.851" stroke="#e8b84b" stroke-width="3.18" stroke-linecap="round" opacity="0.45"/>
</svg>
